<?xml version="1.0" encoding="utf-8"?>
<!-- Generator: Adobe Illustrator 24.0.1, SVG Export Plug-In . SVG Version: 6.00 Build 0)  -->
<svg version="1.1" id="Layer_1" xmlns="http://www.w3.org/2000/svg" xmlns:xlink="http://www.w3.org/1999/xlink" x="0px" y="0px"
	 viewBox="0 0 800 800" style="enable-background:new 0 0 800 800;" xml:space="preserve">
<style type="text/css">
	.st0{fill:none;}
	.st1{fill:#36A9E1;}
	.st2{fill:url(#New_Pattern_Swatch_2);}
</style>
<pattern  width="239" height="239" patternUnits="userSpaceOnUse" id="New_Pattern_Swatch_2" viewBox="0 -239 239 239" style="overflow:visible;">
	<g>
		<rect y="-239" class="st0" width="239" height="239"/>
		<path class="st0" d="M187.41-49.69c-1.33,1.33-1.33,3.5,0,4.83c1.33,1.33,3.5,1.33,4.83,0c1.33-1.33,1.33-3.5,0-4.83
			C190.9-51.02,188.74-51.02,187.41-49.69z"/>
		<path class="st0" d="M36.99-10.17c-0.44,1.3-0.73,2.65-0.86,4.03h15.98c-0.13-1.38-0.42-2.73-0.86-4.03H36.99z"/>
		<path class="st0" d="M113.94-120.33v-25.82c0-1.18-0.97-2.14-2.15-2.14H68.76c-1.18,0-2.14,0.97-2.14,2.14v25.82
			c0,1.18,0.97,2.15,2.14,2.15h43.03C112.98-118.18,113.94-119.15,113.94-120.33z"/>
		<path class="st0" d="M231.53-99.4l-1.27,1.27c0.4,1.13,0.6,2.32,0.56,3.53C231.6-96.09,231.84-97.79,231.53-99.4z"/>
		<path class="st0" d="M59.14-10.17h-4.43c0.37,1.31,0.61,2.66,0.72,4.03h4.66C59.96-7.54,59.63-8.9,59.14-10.17z"/>
		<path class="st0" d="M48.87-19.83c1.92,1.82,3.48,3.98,4.61,6.35h3.95C55.4-16.47,52.39-18.74,48.87-19.83z"/>
		<path class="st0" d="M49.74-13.48c-1.38-2.35-3.28-4.39-5.62-5.92c-2.33,1.53-4.24,3.57-5.62,5.92H49.74z"/>
		<path class="st0" d="M70.12-47.03c-0.35,0.35-0.35,0.92,0,1.27c0.35,0.35,0.92,0.35,1.27,0c0.35-0.35,0.35-0.92,0-1.26
			C71.04-47.38,70.47-47.38,70.12-47.03z"/>
		<path class="st0" d="M30.82-13.48h3.95c1.12-2.38,2.68-4.53,4.61-6.35C35.86-18.74,32.85-16.47,30.82-13.48z"/>
		<path class="st0" d="M31.74-169.34c-5.85,0-10.59,4.74-10.59,10.59c0,5.85,4.74,10.59,10.59,10.59c5.85,0,10.59-4.74,10.59-10.59
			C42.33-164.59,37.59-169.34,31.74-169.34z"/>
		<path class="st0" d="M76.03-69.59c-0.49-0.49-1.29-0.49-1.78,0L63.49-58.84c-0.49,0.49-0.49,1.3,0,1.79L81.4-39.13
			c0.5,0.49,1.3,0.49,1.79,0l10.75-10.75c0.49-0.49,0.49-1.29,0-1.79L76.03-69.59z"/>
		<path class="st0" d="M28.15-6.14h4.66c0.11-1.37,0.35-2.72,0.72-4.03h-4.42C28.62-8.9,28.3-7.54,28.15-6.14z"/>
		<path class="st0" d="M230.03-102.62l-1.5,1.5c0.41,0.48,0.76,0.99,1.07,1.53l1.42-1.42C230.76-101.58,230.43-102.12,230.03-102.62
			z"/>
		<path class="st0" d="M90.28-115.63c-0.84,0-1.52,0.68-1.52,1.52c0,0.84,0.68,1.52,1.52,1.52c0.84,0,1.52-0.68,1.52-1.52
			C91.8-114.95,91.12-115.63,90.28-115.63z"/>
		<path class="st0" d="M228.96-103.69c-0.5-0.41-1.04-0.73-1.61-0.99l-1.42,1.42c0.54,0.3,1.05,0.66,1.53,1.07L228.96-103.69z"/>
		<path class="st0" d="M228.48-98.48c-0.27-0.56-0.62-1.09-1.02-1.57l-5.14,5.14c0.49,0.4,1.01,0.75,1.57,1.02L228.48-98.48z"/>
		<path class="st0" d="M189.82-226.29c0.41,0,0.75-0.33,0.75-0.75c0-0.41-0.33-0.75-0.75-0.75c-0.41,0-0.75,0.33-0.75,0.75
			C189.07-226.63,189.41-226.29,189.82-226.29z"/>
		<path class="st0" d="M57.43-234.5h-3.95c-1.12,2.38-2.68,4.53-4.61,6.35C52.39-229.24,55.4-231.51,57.43-234.5z"/>
		<path class="st0" d="M220.23-97.55c0.28,0.56,0.62,1.09,1.02,1.57l5.14-5.14c-0.49-0.4-1.01-0.75-1.57-1.02L220.23-97.55z"/>
		<path class="st0" d="M225.44-93.31c1.2,0.31,2.47,0.36,3.71,0.1c0.26-1.24,0.21-2.51-0.1-3.71L225.44-93.31z"/>
		<path class="st0" d="M120.49-230.33c0.48,0,0.87-0.39,0.87-0.87c0-0.48-0.39-0.87-0.87-0.87c-0.48,0-0.87,0.39-0.87,0.87
			C119.62-230.72,120.01-230.33,120.49-230.33z"/>
		<path class="st0" d="M44.13-228.58c2.33-1.53,4.24-3.57,5.62-5.92H38.51C39.88-232.15,41.79-230.11,44.13-228.58z"/>
		<path class="st0" d="M219.75-92.34c0.5,0.41,1.04,0.73,1.6,0.99l1.42-1.42c-0.54-0.3-1.05-0.66-1.53-1.06L219.75-92.34z"/>
		<path class="st0" d="M225.74-105.19c-1.61-0.31-3.31-0.07-4.8,0.71c1.21-0.03,2.4,0.16,3.53,0.56L225.74-105.19z"/>
		<path class="st0" d="M222.97-90.84c1.62,0.31,3.31,0.07,4.8-0.71c-1.2,0.03-2.4-0.16-3.53-0.56L222.97-90.84z"/>
		<path class="st0" d="M219.12-96.43l-1.42,1.42c0.25,0.57,0.58,1.11,0.99,1.6l1.5-1.5C219.78-95.38,219.42-95.9,219.12-96.43z"/>
		<path class="st0" d="M217.89-101.42c-0.78,1.48-1.02,3.18-0.71,4.8l1.27-1.27C218.05-99.02,217.86-100.22,217.89-101.42z"/>
		<path class="st0" d="M223.27-102.71c-1.2-0.31-2.47-0.36-3.71-0.1c-0.26,1.24-0.22,2.51,0.1,3.71L223.27-102.71z"/>
		<path class="st0" d="M39.38-228.15c-1.92-1.82-3.48-3.98-4.61-6.35h-3.95C32.85-231.51,35.86-229.24,39.38-228.15z"/>
		<path class="st0" d="M155.98-152.66h-4.66c0.14,1.41,0.47,2.75,0.96,4.03h4.42C156.33-149.94,156.09-151.29,155.98-152.66z"/>
		<path class="st0" d="M178.6-155.97h4.66c-0.14-1.41-0.47-2.76-0.96-4.03h-4.43C178.25-158.69,178.5-157.34,178.6-155.97z"/>
		<path class="st0" d="M180.59-163.3c-2.03-2.99-5.03-5.26-8.56-6.35c1.92,1.82,3.48,3.98,4.61,6.35H180.59z"/>
		<path class="st0" d="M153.99-145.32c2.03,2.99,5.03,5.26,8.56,6.35c-1.92-1.82-3.48-3.98-4.61-6.35H153.99z"/>
		<path class="st0" d="M174.42-160h-14.26c-0.44,1.3-0.73,2.65-0.86,4.03h15.98C175.15-157.35,174.86-158.7,174.42-160z"/>
		<path class="st0" d="M161.67-145.32c1.38,2.35,3.28,4.39,5.62,5.92c2.33-1.53,4.24-3.57,5.62-5.92H161.67z"/>
		<path class="st0" d="M216.09-157.83c0.48,0.48,1.26,0.48,1.74,0l10.43-10.43c0.48-0.48,0.48-1.25,0-1.73l-17.37-17.37
			c-0.48-0.47-1.26-0.47-1.73,0l-10.43,10.43c-0.48,0.48-0.48,1.26,0,1.73L216.09-157.83z"/>
		<rect x="155.01" y="-104.49" class="st0" width="18.42" height="31.47"/>
		<path class="st0" d="M177.88-148.63h4.43c0.48-1.28,0.81-2.63,0.96-4.03h-4.66C178.5-151.29,178.25-149.94,177.88-148.63z"/>
		<path class="st0" d="M205.14-165.48c-0.34,0.34-0.34,0.89,0,1.23c0.34,0.34,0.89,0.34,1.23,0c0.34-0.34,0.34-0.89,0-1.23
			C206.03-165.82,205.48-165.82,205.14-165.48z"/>
		<path class="st0" d="M160.16-148.63h14.26c0.44-1.3,0.73-2.65,0.86-4.03H159.3C159.43-151.28,159.72-149.93,160.16-148.63z"/>
		<path class="st0" d="M172.04-138.97c3.52-1.09,6.53-3.36,8.56-6.35h-3.95C175.52-142.95,173.96-140.79,172.04-138.97z"/>
		<path class="st0" d="M162.55-169.66c-3.52,1.09-6.53,3.36-8.56,6.35h3.95C159.06-165.68,160.62-167.84,162.55-169.66z"/>
		<path class="st0" d="M156.7-160h-4.42c-0.48,1.27-0.81,2.63-0.96,4.03h4.66C156.09-157.34,156.33-158.69,156.7-160z"/>
		<path class="st0" d="M172.91-163.3c-1.38-2.35-3.28-4.39-5.62-5.92c-2.33,1.53-4.24,3.57-5.62,5.92H172.91z"/>
		<rect x="46.24" y="-207.09" class="st0" width="12.83" height="21.91"/>
		<path class="st0" d="M164.22-71.52c-0.61,0-1.1,0.49-1.1,1.1c0,0.61,0.49,1.1,1.1,1.1c0.61,0,1.1-0.49,1.1-1.1
			C165.33-71.03,164.83-71.52,164.22-71.52z"/>
		<path class="st0" d="M52.65-184.13c-0.42,0-0.77,0.34-0.77,0.77c0,0.42,0.34,0.77,0.77,0.77c0.42,0,0.77-0.34,0.77-0.77
			C53.42-183.79,53.08-184.13,52.65-184.13z"/>
		<path class="st1" d="M47.65-154.84c-0.4,1.64-1.04,3.18-1.9,4.58c0.52,0.91,1.04,1.83,1.56,2.74c-1.21,1.67-2.68,3.14-4.35,4.35
			c-0.91-0.52-1.83-1.04-2.74-1.56c-1.4,0.85-2.95,1.5-4.58,1.9c-0.28,1.02-0.56,2.03-0.83,3.05c-1,0.16-2.03,0.25-3.07,0.25
			c-1.05,0-2.07-0.09-3.07-0.25c-0.28-1.02-0.56-2.03-0.83-3.05c-1.64-0.4-3.18-1.04-4.58-1.9c-0.91,0.52-1.83,1.04-2.74,1.56
			c-1.67-1.21-3.14-2.68-4.35-4.35c0.52-0.91,1.04-1.83,1.56-2.74c-0.85-1.4-1.5-2.95-1.9-4.58c-1.02-0.28-2.03-0.56-3.05-0.83
			c-0.16-1-0.25-2.03-0.25-3.07c0-1.05,0.09-2.07,0.25-3.07c1.02-0.28,2.03-0.56,3.05-0.83c0.4-1.64,1.04-3.18,1.9-4.58
			c-0.52-0.91-1.04-1.83-1.56-2.74c1.21-1.67,2.68-3.14,4.35-4.35c0.91,0.52,1.83,1.04,2.74,1.56c1.4-0.85,2.95-1.5,4.58-1.9
			c0.28-1.02,0.56-2.03,0.83-3.05c1-0.16,2.03-0.25,3.07-0.25c1.05,0,2.07,0.09,3.07,0.25c0.28,1.02,0.56,2.03,0.83,3.05
			c1.64,0.4,3.18,1.04,4.58,1.9c0.91-0.52,1.83-1.04,2.74-1.56c1.67,1.21,3.14,2.68,4.35,4.35c-0.52,0.91-1.04,1.83-1.56,2.74
			c0.85,1.4,1.5,2.95,1.9,4.58c1.02,0.28,2.03,0.56,3.05,0.83c0.16,1,0.25,2.03,0.25,3.07c0,1.05-0.09,2.07-0.25,3.07
			C49.68-155.39,48.67-155.12,47.65-154.84z M42.33-158.75c0-5.85-4.74-10.59-10.59-10.59c-5.85,0-10.59,4.74-10.59,10.59
			c0,5.85,4.74,10.59,10.59,10.59C37.59-148.16,42.33-152.9,42.33-158.75z"/>
		<path class="st1" d="M3.79-34.93c1.54-0.38,3.04-0.99,4.44-1.84c0.89,0.5,1.77,1.01,2.66,1.52c0.8-0.58,1.56-1.22,2.27-1.94
			c0.72-0.72,1.36-1.48,1.94-2.27c-0.51-0.89-1.01-1.77-1.52-2.66c0.85-1.4,1.46-2.89,1.84-4.44c0.98-0.27,1.97-0.54,2.95-0.81
			c0.32-1.97,0.32-3.98,0-5.96c-0.98-0.27-1.97-0.54-2.95-0.81c-0.38-1.54-0.99-3.04-1.84-4.44c0.51-0.89,1.01-1.77,1.52-2.66
			c-0.58-0.79-1.22-1.56-1.94-2.27c-0.72-0.72-1.48-1.36-2.28-1.94c-0.89,0.51-1.77,1.01-2.66,1.52c-1.4-0.85-2.89-1.46-4.44-1.84
			c-0.27-0.98-0.54-1.96-0.81-2.95C1.99-68.87,1-68.95,0-68.95v8.35c2.63,0,5.25,1,7.25,3.01c4,4,4.01,10.5,0,14.51
			c-2,2-4.63,3-7.25,3v8.34c1,0,1.99-0.08,2.98-0.24C3.25-32.96,3.52-33.95,3.79-34.93z"/>
		<path class="st1" d="M194.96-46.01c-0.13,0.51-0.33,1.01-0.61,1.48c0.17,0.3,0.34,0.59,0.5,0.89c-0.19,0.27-0.41,0.52-0.64,0.76
			c-0.24,0.24-0.49,0.45-0.76,0.64c-0.29-0.17-0.59-0.34-0.89-0.5c-0.46,0.28-0.96,0.49-1.48,0.61c-0.09,0.33-0.18,0.66-0.27,0.98
			c-0.66,0.11-1.33,0.11-1.98,0c-0.09-0.33-0.18-0.66-0.27-0.98c-0.52-0.13-1.01-0.33-1.48-0.61c-0.3,0.17-0.59,0.34-0.89,0.5
			c-0.26-0.19-0.52-0.41-0.76-0.64c-0.24-0.24-0.45-0.49-0.64-0.76c0.17-0.29,0.34-0.59,0.5-0.89c-0.28-0.46-0.49-0.96-0.61-1.48
			c-0.33-0.09-0.66-0.18-0.98-0.27c-0.11-0.66-0.11-1.33,0-1.98c0.33-0.09,0.66-0.18,0.98-0.27c0.13-0.51,0.33-1.01,0.61-1.48
			c-0.17-0.3-0.34-0.59-0.5-0.89c0.19-0.26,0.41-0.52,0.64-0.76c0.24-0.24,0.49-0.45,0.76-0.64c0.3,0.17,0.59,0.34,0.89,0.51
			c0.46-0.28,0.96-0.49,1.48-0.61c0.09-0.33,0.18-0.65,0.27-0.98c0.66-0.11,1.33-0.11,1.98,0c0.09,0.33,0.18,0.66,0.27,0.98
			c0.51,0.13,1.01,0.33,1.48,0.61c0.3-0.17,0.59-0.34,0.89-0.51c0.26,0.19,0.52,0.41,0.76,0.64c0.24,0.24,0.45,0.49,0.64,0.76
			c-0.17,0.29-0.34,0.59-0.51,0.89c0.28,0.46,0.49,0.96,0.61,1.48c0.33,0.09,0.65,0.18,0.98,0.27c0.11,0.66,0.11,1.33,0,1.98
			C195.61-46.19,195.28-46.1,194.96-46.01z M192.24-49.69c-1.33-1.33-3.5-1.33-4.83,0c-1.33,1.33-1.33,3.5,0,4.83
			c1.33,1.33,3.5,1.33,4.83,0C193.57-46.19,193.57-48.35,192.24-49.69z"/>
		<path class="st1" d="M167.29-134.95c-10.68,0-19.37-8.69-19.37-19.37c0-10.68,8.69-19.37,19.37-19.37
			c10.68,0,19.37,8.69,19.37,19.37C186.66-143.63,177.97-134.95,167.29-134.95z M183.27-152.66h-4.66
			c-0.11,1.37-0.35,2.72-0.72,4.03h4.43C182.79-149.91,183.12-151.25,183.27-152.66z M177.88-160c0.37,1.31,0.61,2.66,0.72,4.03
			h4.66c-0.14-1.41-0.47-2.76-0.96-4.03H177.88z M172.04-169.66c1.92,1.82,3.48,3.98,4.61,6.35h3.95
			C178.57-166.29,175.56-168.56,172.04-169.66z M175.28-155.97c-0.13-1.38-0.42-2.73-0.86-4.03h-14.26
			c-0.44,1.3-0.73,2.65-0.86,4.03H175.28z M159.3-152.66c0.13,1.38,0.42,2.73,0.86,4.03h14.26c0.44-1.3,0.73-2.65,0.86-4.03H159.3z
			 M161.67-163.3h11.24c-1.38-2.35-3.28-4.39-5.62-5.92C164.96-167.7,163.05-165.65,161.67-163.3z M153.99-163.3h3.95
			c1.12-2.38,2.68-4.53,4.61-6.35C159.03-168.56,156.02-166.29,153.99-163.3z M151.32-155.97h4.66c0.11-1.37,0.35-2.72,0.72-4.03
			h-4.42C151.79-158.72,151.46-157.37,151.32-155.97z M156.7-148.63c-0.37-1.31-0.61-2.66-0.72-4.03h-4.66
			c0.14,1.41,0.47,2.75,0.96,4.03H156.7z M162.55-138.97c-1.92-1.82-3.48-3.98-4.61-6.35h-3.95
			C156.02-142.33,159.03-140.06,162.55-138.97z M172.91-145.32h-11.24c1.38,2.35,3.28,4.39,5.62,5.92
			C169.63-140.93,171.53-142.97,172.91-145.32z M180.59-145.32h-3.95c-1.12,2.38-2.68,4.53-4.61,6.35
			C175.56-140.06,178.57-142.33,180.59-145.32z"/>
		<path class="st1" d="M25.31-239h3.41c0.12,0.4,0.25,0.8,0.39,1.19h4.42c-0.11-0.39-0.19-0.79-0.27-1.19h3.38
			c0.11,0.4,0.22,0.8,0.35,1.19h14.26c0.13-0.39,0.25-0.79,0.35-1.19h3.38c-0.09,0.4-0.16,0.8-0.27,1.19h4.43
			c0.15-0.39,0.28-0.79,0.39-1.19h3.41c-2.03,8.52-9.69,14.87-18.82,14.87C35-224.13,27.34-230.48,25.31-239z M48.87-228.15
			c3.52-1.09,6.53-3.36,8.56-6.35h-3.95C52.35-232.13,50.79-229.97,48.87-228.15z M38.51-234.5c1.38,2.35,3.28,4.39,5.62,5.92
			c2.33-1.53,4.24-3.57,5.62-5.92H38.51z M30.82-234.5c2.03,2.99,5.03,5.26,8.56,6.35c-1.92-1.82-3.48-3.98-4.61-6.35H30.82z"/>
		<path class="st1" d="M230.59-91.78c-3.43,3.44-9.03,3.44-12.46,0c-3.44-3.43-3.44-9.03,0-12.46c3.43-3.44,9.03-3.44,12.46,0
			C234.02-100.81,234.02-95.22,230.59-91.78z M225.94-103.25c0.54,0.3,1.05,0.66,1.53,1.07l1.5-1.5c-0.5-0.41-1.04-0.73-1.61-0.99
			L225.94-103.25z M222.32-94.91c0.49,0.4,1.01,0.75,1.57,1.02l4.59-4.59c-0.27-0.56-0.62-1.09-1.02-1.57L222.32-94.91z
			 M226.4-101.12c-0.49-0.4-1.01-0.75-1.57-1.02l-4.59,4.59c0.28,0.56,0.62,1.09,1.02,1.57L226.4-101.12z M220.95-104.48
			c1.21-0.03,2.4,0.16,3.53,0.56l1.27-1.27C224.13-105.5,222.43-105.26,220.95-104.48z M219.66-99.1l3.62-3.62
			c-1.2-0.31-2.47-0.36-3.71-0.1C219.3-101.57,219.34-100.3,219.66-99.1z M217.18-96.63l1.27-1.27c-0.4-1.13-0.59-2.32-0.56-3.53
			C217.11-99.94,216.88-98.24,217.18-96.63z M218.69-93.41l1.5-1.5c-0.41-0.48-0.76-0.99-1.07-1.53l-1.42,1.42
			C217.95-94.45,218.28-93.91,218.69-93.41z M222.78-92.78c-0.54-0.3-1.05-0.66-1.53-1.06l-1.5,1.5c0.5,0.41,1.04,0.73,1.6,0.99
			L222.78-92.78z M227.77-91.55c-1.2,0.03-2.4-0.16-3.53-0.56l-1.27,1.27C224.58-90.53,226.28-90.77,227.77-91.55z M229.06-96.93
			l-3.62,3.62c1.2,0.31,2.47,0.36,3.71,0.1C229.41-94.46,229.37-95.73,229.06-96.93z M229.59-99.59l1.42-1.42
			c-0.25-0.57-0.58-1.11-0.99-1.61l-1.5,1.5C228.93-100.64,229.29-100.13,229.59-99.59z M230.26-98.13c0.4,1.13,0.6,2.32,0.56,3.53
			c0.78-1.48,1.02-3.18,0.71-4.8L230.26-98.13z"/>
		<path class="st1" d="M96.74-109.58v3.01h4.03c2.19,0,4.01,1.56,4.41,3.63h-29.8c0.4-2.07,2.22-3.63,4.41-3.63h4.03v-3.01H68.76
			c-3.56,0-6.45-2.89-6.45-6.45v-30.13c0-3.56,2.89-6.45,6.45-6.45h43.03c3.57,0,6.46,2.89,6.46,6.45v30.13
			c0,3.56-2.89,6.45-6.46,6.45H96.74z M91.8-114.11c0-0.84-0.68-1.52-1.52-1.52c-0.84,0-1.52,0.68-1.52,1.52
			c0,0.84,0.68,1.52,1.52,1.52C91.12-112.59,91.8-113.27,91.8-114.11z M111.79-118.18c1.19,0,2.15-0.97,2.15-2.15v-25.82
			c0-1.18-0.97-2.14-2.15-2.14H68.76c-1.18,0-2.14,0.97-2.14,2.14v25.82c0,1.18,0.97,2.15,2.14,2.15H111.79z"/>
		<path class="st1" d="M195.24-176.93l12.16-12.17c1.44-1.44,3.77-1.44,5.21,0l17.37,17.37c1.44,1.44,1.44,3.78,0,5.21l-12.16,12.16
			c-1.44,1.44-3.77,1.44-5.21,0l-6.08-6.08l-1.22,1.22l1.63,1.63c0.88,0.88,0.99,2.25,0.32,3.25l-12.03-12.03
			c1-0.67,2.36-0.57,3.25,0.32l1.63,1.63l1.22-1.22l-6.08-6.08C193.8-173.16,193.8-175.5,195.24-176.93z M206.37-165.48
			c-0.34-0.34-0.89-0.34-1.23,0c-0.34,0.34-0.34,0.89,0,1.23c0.34,0.34,0.89,0.34,1.23,0C206.71-164.59,206.71-165.14,206.37-165.48
			z M198.71-175.2l17.37,17.37c0.48,0.48,1.26,0.48,1.74,0l10.43-10.43c0.48-0.48,0.48-1.25,0-1.73l-17.37-17.37
			c-0.48-0.47-1.26-0.47-1.73,0l-10.43,10.43C198.24-176.46,198.24-175.67,198.71-175.2z"/>
		<path class="st1" d="M106.98-239v4.25c0,0.68,0.55,1.23,1.22,1.23h24.57c0.68,0,1.23-0.55,1.23-1.23V-239h2.46v6.7
			c0,2.03-1.65,3.68-3.69,3.68h-8.59v1.72h2.3c1.25,0,2.29,0.89,2.52,2.07h-17.02c0.23-1.18,1.27-2.07,2.52-2.07l2.3,0v-1.72l-8.6,0
			c-2.03,0-3.68-1.65-3.68-3.68V-239H106.98z M119.62-231.2c0,0.48,0.39,0.87,0.87,0.87c0.48,0,0.87-0.39,0.87-0.87
			c0-0.48-0.39-0.87-0.87-0.87C120.01-232.07,119.62-231.68,119.62-231.2z"/>
		<path class="st1" d="M95.74-48.09L83.2-35.55c-1.48,1.48-3.89,1.48-5.38,0l-6.27-6.27l-1.25,1.25l1.68,1.68
			c0.91,0.91,1.02,2.32,0.32,3.35L59.9-47.95c1.03-0.69,2.43-0.59,3.35,0.33l1.68,1.68l1.25-1.25l-6.27-6.27
			c-1.48-1.48-1.48-3.89,0-5.37l12.54-12.54c1.48-1.48,3.89-1.48,5.37,0l17.91,17.91C97.22-51.98,97.22-49.57,95.74-48.09z
			 M71.39-47.03c-0.35-0.35-0.92-0.35-1.27,0c-0.35,0.35-0.35,0.92,0,1.27c0.35,0.35,0.92,0.35,1.27,0
			C71.74-46.11,71.74-46.68,71.39-47.03z M93.94-51.67L76.03-69.59c-0.49-0.49-1.29-0.49-1.78,0L63.49-58.84
			c-0.49,0.49-0.49,1.3,0,1.79L81.4-39.13c0.5,0.49,1.3,0.49,1.79,0l10.75-10.75C94.44-50.37,94.44-51.18,93.94-51.67z"/>
		<polygon class="st1" points="152,-33.01 162.47,-42.73 141.52,-42.73 		"/>
		<path class="st1" d="M141.39-26.68h21.21c0.62,0,1.14-0.64,1.14-1.42v-13.22c0-0.08-0.01-0.15-0.02-0.22L152-30.65l-11.72-10.89
			c-0.01,0.07-0.02,0.15-0.02,0.22v13.22C140.26-27.31,140.77-26.68,141.39-26.68z"/>
		<polygon class="st1" points="81.45,-24.52 81.81,-14.93 91.4,-14.57 		"/>
		<path class="st1" d="M80.29-24.55c-0.04,0.03-0.08,0.06-0.11,0.1l-6.28,6.28c-0.37,0.37-0.43,0.92-0.13,1.21L83.84-6.88
			c0.3,0.3,0.84,0.24,1.21-0.13l6.28-6.28c0.04-0.04,0.07-0.08,0.1-0.11l-10.74-0.4L80.29-24.55z"/>
		<polygon class="st1" points="205.52,-129.37 206.05,-143.65 191.24,-128.84 		"/>
		<path class="st1" d="M202.5-117.39l15-15c0.44-0.44,0.35-1.25-0.2-1.8l-9.35-9.35c-0.05-0.05-0.11-0.1-0.17-0.14l-0.59,15.99
			l-15.99,0.59c0.05,0.06,0.09,0.12,0.15,0.17l9.35,9.35C201.25-117.04,202.06-116.95,202.5-117.39z"/>
		<path class="st1" d="M175.03-68.06h-21.62c-0.78,0-1.42-0.64-1.42-1.42v-37.2c0-0.78,0.64-1.42,1.42-1.42h21.62
			c0.78,0,1.42,0.64,1.42,1.42v37.2C176.45-68.7,175.81-68.06,175.03-68.06z M165.33-70.42c0-0.61-0.49-1.1-1.1-1.1
			c-0.61,0-1.1,0.49-1.1,1.1c0,0.61,0.49,1.1,1.1,1.1C164.83-69.32,165.33-69.81,165.33-70.42z M173.43-104.49h-18.42v31.47h18.42
			V-104.49z"/>
		<path class="st1" d="M183.58-239v10.2h12.48V-239h2.04v12.6c0,0.53-0.43,0.96-0.96,0.96H182.5c-0.53,0-0.96-0.43-0.96-0.96V-239
			H183.58z M189.07-227.04c0,0.41,0.33,0.75,0.75,0.75c0.41,0,0.75-0.33,0.75-0.75c0-0.41-0.33-0.75-0.75-0.75
			C189.41-227.79,189.07-227.45,189.07-227.04z"/>
		<path class="st1" d="M63.49-4.49c0,1.55-0.2,3.04-0.55,4.49h-3.41C59.8-0.91,60-1.86,60.1-2.83h-4.66
			C55.36-1.87,55.2-0.93,54.99,0h-3.38c0.24-0.92,0.41-1.87,0.5-2.83H36.13c0.09,0.96,0.26,1.91,0.5,2.83h-3.38
			c-0.2-0.93-0.37-1.87-0.44-2.83h-4.66c0.1,0.97,0.29,1.92,0.56,2.83h-3.41c-0.34-1.44-0.55-2.94-0.55-4.49
			c0-10.68,8.69-19.37,19.37-19.37S63.49-15.16,63.49-4.49z M38.51-13.48h11.24c-1.38-2.35-3.28-4.39-5.62-5.92
			C41.79-17.87,39.88-15.83,38.51-13.48z M33.53-10.17h-4.42c-0.48,1.27-0.81,2.62-0.96,4.03h4.66
			C32.92-7.51,33.17-8.86,33.53-10.17z M39.38-19.83c-3.52,1.09-6.53,3.36-8.56,6.35h3.95C35.9-15.85,37.46-18.01,39.38-19.83z
			 M52.12-6.14c-0.13-1.38-0.42-2.73-0.86-4.03H36.99c-0.44,1.3-0.73,2.65-0.86,4.03H52.12z M53.48-13.48h3.95
			c-2.03-2.99-5.03-5.26-8.56-6.35C50.79-18.01,52.35-15.85,53.48-13.48z M60.1-6.14c-0.14-1.41-0.47-2.76-0.96-4.03h-4.43
			c0.37,1.31,0.61,2.66,0.72,4.03H60.1z"/>
		<path class="st1" d="M136.46,0v-10.49c0-2.03-1.65-3.68-3.69-3.68H108.2c-2.03,0-3.68,1.65-3.68,3.68V0h2.46v-10.5
			c0-0.67,0.55-1.22,1.22-1.22l24.57,0c0.68,0,1.23,0.55,1.23,1.22V0H136.46z"/>
		<path class="st1" d="M198.1,0v-12.6c0-0.53-0.43-0.96-0.96-0.96H182.5c-0.53,0-0.96,0.43-0.96,0.96V0h2.04v-11.12h12.48V0H198.1z"
			/>
		<path class="st1" d="M60.18-181.72H45.13c-0.54,0-0.99-0.44-0.99-0.99v-25.9c0-0.54,0.44-0.99,0.99-0.99h15.05
			c0.54,0,0.99,0.44,0.99,0.99v25.9C61.17-182.17,60.72-181.72,60.18-181.72z M53.42-183.37c0-0.42-0.34-0.77-0.77-0.77
			c-0.42,0-0.77,0.34-0.77,0.77c0,0.42,0.34,0.77,0.77,0.77C53.08-182.6,53.42-182.94,53.42-183.37z M59.06-207.09H46.24v21.91
			h12.83V-207.09z"/>
		<path class="st1" d="M30.07-92.88c-7.05-7.05-18.53-7.05-25.59,0l2.58,2.58c5.63-5.64,14.8-5.63,20.44,0L30.07-92.88z"/>
		<path class="st1" d="M25.84-88.65c-4.72-4.72-12.41-4.72-17.13,0l2.58,2.58c3.3-3.3,8.67-3.3,11.98,0L25.84-88.65z"/>
		<path class="st1" d="M12.93-84.43l4.34,4.31l4.34-4.31C19.22-86.83,15.33-86.83,12.93-84.43z"/>
		<path class="st1" d="M141.27-199.36c-8.95-8.95-23.51-8.95-32.45,0l3.27,3.27c7.15-7.15,18.78-7.15,25.92,0L141.27-199.36z"/>
		<path class="st1" d="M114.18-193.99l3.27,3.27c4.19-4.19,11-4.19,15.19,0l3.27-3.27C129.91-199.98,120.17-199.98,114.18-193.99z"
			/>
		<path class="st1" d="M130.55-188.64c-3.04-3.04-7.98-3.05-11.02,0l5.51,5.47L130.55-188.64z"/>
		<path class="st1" d="M0-210.84c7.07,3.39,11.97,10.6,11.98,18.95l5.3,0c0-11.33-7.2-21.02-17.27-24.72V-210.84z"/>
		<path class="st1" d="M3.27-191.89h5.3c0-6.4-3.45-12-8.57-15.09v6.76C2.02-198.03,3.27-195.11,3.27-191.89z"/>
		<path class="st1" d="M239-40.09c-2.62,0-5.24-1-7.24-3c-4.01-4.01-4.01-10.5,0-14.51c2-2,4.62-3,7.24-3v-8.35
			c-0.99,0-1.98,0.08-2.96,0.24c-0.27,0.98-0.54,1.96-0.81,2.95c-1.54,0.38-3.04,0.99-4.44,1.84c-0.89-0.51-1.77-1.01-2.66-1.52
			c-0.79,0.58-1.56,1.22-2.27,1.94c-0.72,0.72-1.36,1.48-1.94,2.27c0.51,0.89,1.01,1.77,1.52,2.66c-0.85,1.4-1.46,2.89-1.84,4.44
			c-0.98,0.27-1.97,0.54-2.95,0.81c-0.32,1.97-0.32,3.99,0,5.96c0.98,0.27,1.97,0.54,2.95,0.81c0.38,1.54,0.99,3.04,1.84,4.44
			c-0.51,0.89-1.01,1.77-1.52,2.66c0.58,0.79,1.22,1.56,1.94,2.27c0.71,0.72,1.48,1.36,2.27,1.94c0.89-0.51,1.77-1.01,2.66-1.52
			c1.4,0.85,2.89,1.46,4.44,1.84c0.27,0.98,0.54,1.96,0.81,2.95c0.98,0.16,1.97,0.24,2.96,0.24V-40.09z"/>
		<path class="st1" d="M229.97-212.91c3.24,0,6.29,0.76,9.03,2.07v-5.77c-2.82-1.03-5.86-1.6-9.03-1.6V-212.91z"/>
		<path class="st1" d="M239-206.99c-2.65-1.59-5.73-2.52-9.03-2.52v5.3c3.57,0,6.78,1.53,9.03,3.97V-206.99z"/>
		<path class="st1" d="M229.97-200.83l0.03,8.9l8.9,0.03C238.91-196.83,234.91-200.83,229.97-200.83z"/>
		<path class="st1" d="M118.78-83.68l0-2.41c-6.61,0-11.99,5.38-11.99,12h2.42C109.2-79.38,113.5-83.68,118.78-83.68z"/>
		<path class="st1" d="M118.78-79.71v-2.41c-4.43,0-8.03,3.6-8.03,8.03h2.41C113.17-77.19,115.69-79.71,118.78-79.71z"/>
		<path class="st1" d="M118.78-78.17c-2.25,0-4.07,1.82-4.07,4.07l4.06-0.02L118.78-78.17z"/>
		<circle class="st1" cx="133.34" cy="-106" r="4.17"/>
		<circle class="st1" cx="147.83" cy="-57.23" r="4.17"/>
		<circle class="st1" cx="212.61" cy="-20.38" r="4.17"/>
		<circle class="st1" cx="31.74" cy="-117.15" r="2.71"/>
		<circle class="st1" cx="85.16" cy="-83.16" r="2.71"/>
		<circle class="st1" cx="30.07" cy="-41.08" r="2.71"/>
		<path class="st1" d="M118.25-47.63c1.5,0,2.71-1.21,2.71-2.71c0-1.5-1.21-2.71-2.71-2.71c-1.5,0-2.71,1.21-2.71,2.71
			C115.54-48.85,116.75-47.63,118.25-47.63z"/>
		<circle class="st1" cx="179.16" cy="-187.43" r="2.71"/>
		<circle class="st1" cx="85.16" cy="-193.4" r="2.25"/>
		<circle class="st1" cx="206.74" cy="-211.3" r="2.25"/>
		<path class="st1" d="M133.34-152.61c0,0.94,0.76,1.71,1.71,1.71c0.94,0,1.71-0.76,1.71-1.71s-0.76-1.71-1.71-1.71
			C134.11-154.31,133.34-153.55,133.34-152.61z"/>
		<path class="st1" d="M161.27-209.59c0-0.94-0.76-1.71-1.71-1.71c-0.94,0-1.71,0.76-1.71,1.71c0,0.94,0.76,1.71,1.71,1.71
			C160.51-207.89,161.27-208.65,161.27-209.59z"/>
		<path class="st1" d="M222.65-76.37c0,0.94,0.76,1.71,1.71,1.71c0.94,0,1.71-0.76,1.71-1.71s-0.76-1.71-1.71-1.71
			C223.41-78.08,222.65-77.32,222.65-76.37z"/>
		<path class="st1" d="M52.65-81.45c0.94,0,1.7-0.76,1.7-1.71c0-0.94-0.76-1.71-1.7-1.71c-0.94,0-1.71,0.76-1.71,1.71
			C50.95-82.22,51.71-81.45,52.65-81.45z"/>
		<path class="st1" d="M198.67-74.12c0-1.25-1.01-2.25-2.25-2.25s-2.25,1.01-2.25,2.25c0,1.25,1.01,2.25,2.25,2.25
			S198.67-72.87,198.67-74.12z"/>
		<circle class="st1" cx="99.1" cy="-24.55" r="2.25"/>
	</g>
</pattern>
<rect class="st2" width="800" height="800"/>
</svg>
